<?xml version="1.0" encoding="utf-8"?>
<!-- Generator: Adobe Illustrator 25.2.1, SVG Export Plug-In . SVG Version: 6.00 Build 0)  -->
<svg version="1.0" id="Layer_1" xmlns="http://www.w3.org/2000/svg" xmlns:xlink="http://www.w3.org/1999/xlink" x="0px" y="0px"
	 viewBox="0 0 1623 1053" enable-background="new 0 0 1623 1053" xml:space="preserve">
<circle fill="none" stroke="#EB008B" stroke-width="5" stroke-miterlimit="10" cx="328.7" cy="525" r="280.9"/>
<circle fill="none" stroke="#EB008B" stroke-width="5" stroke-miterlimit="10" cx="808.7" cy="525" r="280.9"/>
<circle fill="none" stroke="#EB008B" stroke-width="5" stroke-miterlimit="10" cx="1288.8" cy="525" r="280.9"/>
<g>
	
		<circle fill="none" stroke="#D0D2D3" stroke-width="5" stroke-miterlimit="10" stroke-dasharray="11.9743,11.9743" cx="808.7" cy="525" r="484"/>
</g>
<rect x="182.5" y="489.7" fill="none" width="292.4" height="69.5"/>
<g enable-background="new    ">
	<path d="M186.6,532.7l5.8-8.3c3.5,3.7,9,6.8,15.9,6.8c5.9,0,8.7-2.6,8.7-5.5c0-8.7-28.8-2.6-28.8-21.4c0-8.3,7.2-15.2,19-15.2
		c7.9,0,14.5,2.4,19.5,7l-5.9,7.9c-4-3.8-9.4-5.5-14.5-5.5c-4.5,0-7,2-7,5c0,7.9,28.7,2.5,28.7,21.2c0,9.1-6.6,16-20,16
		C198.2,540.7,191.3,537.4,186.6,532.7z"/>
	<path d="M235.7,530.7v-18.8h-6v-8.3h6v-9.9h9.5v9.9h7.3v8.3h-7.3v16.3c0,2.3,1.2,4.1,3.3,4.1c1.4,0,2.8-0.5,3.3-1.1l2,7.3
		c-1.4,1.3-4,2.3-7.9,2.3C239.2,540.7,235.7,537.2,235.7,530.7z"/>
	<path d="M259.1,539.8v-36.2h9.5v4.9c2.6-3.2,7-5.8,11.5-5.8v9.3c-0.7-0.1-1.5-0.2-2.6-0.2c-3.1,0-7.3,1.8-8.9,4.1v23.9H259.1z"/>
	<path d="M307.8,539.8v-3.8c-2.5,3-6.8,4.7-11.5,4.7c-5.8,0-12.5-3.9-12.5-12c0-8.5,6.7-11.7,12.5-11.7c4.9,0,9.1,1.6,11.5,4.4v-4.6
		c0-3.7-3.1-6.1-7.9-6.1c-3.8,0-7.4,1.5-10.4,4.3l-3.8-6.7c4.4-4,10.1-5.7,15.8-5.7c8.3,0,15.9,3.3,15.9,13.7v23.4H307.8z
		 M307.8,531.1v-4.5c-1.6-2.1-4.6-3.2-7.6-3.2c-3.8,0-6.8,2-6.8,5.5c0,3.4,3.1,5.4,6.8,5.4C303.2,534.2,306.2,533.2,307.8,531.1z"/>
	<path d="M328.7,530.7v-18.8h-6v-8.3h6v-9.9h9.5v9.9h7.3v8.3h-7.3v16.3c0,2.3,1.2,4.1,3.3,4.1c1.4,0,2.8-0.5,3.3-1.1l2,7.3
		c-1.4,1.3-4,2.3-7.9,2.3C332.3,540.7,328.7,537.2,328.7,530.7z"/>
	<path d="M349.8,521.6c0-10.5,7.8-19,18.7-19c10.9,0,18.1,8.1,18.1,19.9v2.2h-26.9c0.7,4.4,4.3,8.1,10.4,8.1c3.1,0,7.3-1.3,9.6-3.5
		l4.3,6.3c-3.6,3.3-9.3,5-14.9,5C358.1,540.7,349.8,533.2,349.8,521.6z M368.6,510.4c-5.9,0-8.5,4.1-8.8,7.7h17.8
		C377.3,514.7,374.9,510.4,368.6,510.4z"/>
	<path d="M392.9,549.1l4.3-6.8c2.9,3.2,6.8,4.4,11.3,4.4c4.6,0,10-1.9,10-9.3v-3.5c-2.9,3.6-6.8,5.6-11.2,5.6c-9,0-16-6.3-16-18.4
		c0-11.8,6.8-18.4,16-18.4c4.4,0,8.3,1.8,11.2,5.5v-4.7h9.5v33.8c0,13.7-10.6,17.1-19.6,17.1C402.3,554.5,397.4,553,392.9,549.1z
		 M418.5,526.9v-11.8c-1.7-2.3-5.1-4-8.2-4c-5.5,0-9.2,3.7-9.2,10c0,6.2,3.7,10,9.2,10C413.4,531.1,416.9,529.3,418.5,526.9z"/>
	<path d="M437.6,545.4c0.8,0.4,2.1,0.6,3,0.6c2.5,0,4.1-0.7,5-2.6l1.4-3.1l-14.7-36.7h10.2l9.4,25.2l9.5-25.2h10.2l-17,42.1
		c-2.7,6.8-7.5,8.6-13.7,8.8c-1.1,0-3.5-0.2-4.6-0.6L437.6,545.4z"/>
</g>
<rect x="662.5" y="489.7" fill="none" width="292.4" height="69.5"/>
<g enable-background="new    ">
	<path d="M695,539.8v-50h19.7c15.7,0,26.5,10,26.5,25c0,15.1-10.9,25-26.5,25H695z M730.4,514.7c0-8.8-5.4-15.6-15.6-15.6h-9.1v31.3
		h9.1C724.6,530.4,730.4,523.3,730.4,514.7z"/>
	<path d="M746.3,521.6c0-10.5,7.8-19,18.7-19c10.9,0,18.1,8.1,18.1,19.9v2.2h-26.9c0.7,4.4,4.3,8.1,10.4,8.1c3.1,0,7.3-1.3,9.6-3.5
		l4.3,6.3c-3.6,3.3-9.3,5-14.9,5C754.6,540.7,746.3,533.2,746.3,521.6z M765.1,510.4c-5.9,0-8.5,4.1-8.8,7.7h17.8
		C773.8,514.7,771.4,510.4,765.1,510.4z"/>
	<path d="M787,535l4.1-6.9c2.7,2.6,8,5,12.5,5c4.1,0,6.1-1.6,6.1-3.8c0-5.9-21.4-1-21.4-15.3c0-6.1,5.2-11.4,14.8-11.4
		c6.1,0,10.9,2.1,14.5,4.9l-3.8,6.8c-2.2-2.2-6.3-4.2-10.7-4.2c-3.4,0-5.7,1.5-5.7,3.5c0,5.3,21.5,0.8,21.5,15.4
		c0,6.7-5.7,11.5-15.7,11.5C796.9,540.7,790.8,538.6,787,535z"/>
	<path d="M825,493.9c0-3.1,2.5-5.6,5.6-5.6c3.1,0,5.7,2.5,5.7,5.6c0,3.2-2.5,5.7-5.7,5.7C827.5,499.6,825,497.1,825,493.9z
		 M825.9,539.8v-36.2h9.5v36.2H825.9z"/>
	<path d="M844.1,549.1l4.3-6.8c2.9,3.2,6.8,4.4,11.3,4.4c4.6,0,10-1.9,10-9.3v-3.5c-2.8,3.6-6.8,5.6-11.2,5.6c-9,0-16-6.3-16-18.4
		c0-11.8,6.8-18.4,16-18.4c4.4,0,8.3,1.8,11.2,5.5v-4.7h9.5v33.8c0,13.7-10.6,17.1-19.6,17.1C853.6,554.5,848.7,553,844.1,549.1z
		 M869.8,526.9v-11.8c-1.7-2.3-5.1-4-8.2-4c-5.5,0-9.2,3.7-9.2,10c0,6.2,3.8,10,9.2,10C864.7,531.1,868.1,529.3,869.8,526.9z"/>
	<path d="M913.2,539.8v-21.9c0-5-2.6-6.7-6.7-6.7c-3.8,0-6.6,2.1-8.2,4.2v24.4h-9.5v-36.2h9.5v4.7c2.3-2.7,6.8-5.5,12.7-5.5
		c8,0,11.8,4.5,11.8,11.5v25.6H913.2z"/>
</g>
<rect x="1142.6" y="489.7" fill="none" width="292.4" height="69.5"/>
<g enable-background="new    ">
	<path d="M1166,514.8c0-15.8,12-25.9,26.7-25.9c10.3,0,16.9,5.2,20.6,11.2l-8.8,4.8c-2.3-3.5-6.6-6.5-11.8-6.5
		c-9.2,0-15.8,7-15.8,16.4c0,9.4,6.6,16.4,15.8,16.4c4.4,0,8.5-2,10.6-3.8v-6h-13.2v-9.3h23.8v19.2c-5.1,5.7-12.2,9.4-21.2,9.4
		C1178,540.7,1166,530.5,1166,514.8z"/>
	<path d="M1222.2,539.8v-36.2h9.5v4.9c2.6-3.2,7-5.8,11.5-5.8v9.3c-0.7-0.1-1.5-0.2-2.6-0.2c-3.1,0-7.3,1.8-8.9,4.1v23.9H1222.2z"/>
	<path d="M1246.9,521.6c0-10.3,7.2-19,19.1-19c12,0,19.2,8.7,19.2,19s-7.2,19-19.2,19C1254.1,540.7,1246.9,531.9,1246.9,521.6z
		 M1275.3,521.6c0-5.6-3.3-10.5-9.3-10.5c-5.9,0-9.2,4.9-9.2,10.5c0,5.7,3.3,10.6,9.2,10.6C1272,532.2,1275.3,527.3,1275.3,521.6z"
		/>
	<path d="M1324.1,539.8l-7.6-24.7l-7.6,24.7h-10.2l-11-36.2h9.9l6.8,24.4l8-24.4h8.5l7.9,24.4l6.8-24.4h10l-11,36.2H1324.1z"/>
	<path d="M1352,530.7v-18.8h-6v-8.3h6v-9.9h9.5v9.9h7.3v8.3h-7.3v16.3c0,2.3,1.2,4.1,3.3,4.1c1.4,0,2.8-0.5,3.3-1.1l2,7.3
		c-1.4,1.3-4,2.3-7.9,2.3C1355.5,540.7,1352,537.2,1352,530.7z"/>
	<path d="M1399.9,539.8v-22c0-5-2.6-6.6-6.7-6.6c-3.8,0-6.7,2.1-8.2,4.2v24.4h-9.6v-50h9.6v18.5c2.3-2.7,6.8-5.5,12.7-5.5
		c7.9,0,11.8,4.3,11.8,11.4v25.7H1399.9z"/>
</g>
</svg>
