<?xml version="1.0" encoding="utf-8"?>
<!-- Generator: Adobe Illustrator 25.2.1, SVG Export Plug-In . SVG Version: 6.00 Build 0)  -->
<svg version="1.0" id="Layer_1" xmlns="http://www.w3.org/2000/svg" xmlns:xlink="http://www.w3.org/1999/xlink" x="0px" y="0px"
	 viewBox="0 0 1500 1500" enable-background="new 0 0 1500 1500" xml:space="preserve">
<g>
	<path fill="#F2F2F2" d="M985.6,624.4c-83-83-83-217.7,0-300.7c83-83,217.7-83,300.7,0c83.1,83.1,83.1,217.7,0,300.7
		C1203.3,707.5,1068.6,707.5,985.6,624.4z"/>
	<g>
		<path fill="#F2F2F2" d="M583.7,758.7L583.7,758.7c-104.1-160.3,79.7-221.8-36.2-400.3c-64-98.6-195.9-126.6-294.5-62.6
			c-98.6,64-126.6,195.9-62.6,294.5c115.4,177.6,240,28.3,351,195.9l0.1,0c104,160.4-79.8,221.9,36.1,400.4
			c64,98.6,195.9,126.6,294.5,62.6c98.6-64,126.6-195.9,62.6-294.5C819.3,777,694.7,926.3,583.7,758.7z"/>
	</g>
</g>
</svg>
