<?xml version="1.0" encoding="UTF-8" standalone="no"?>
<svg xmlns="http://www.w3.org/2000/svg" version="1.0" width="50px" height="38px" viewBox="0 0 380.000000 292.000000" preserveAspectRatio="xMidYMid meet">
  <g transform="translate(0.000000,292.000000) scale(0.100000,-0.100000)" fill="#ffffff" stroke="none">
    <path d="M557 2890 c-107 -23 -217 -75 -289 -140 -101 -90 -206 -267 -243 -409 -85 -329 72 -679 375 -835 201 -104 452 -124 633 -51 31 12 57 21 57 18 0 -3 -9 -49 -20 -103 -85 -417 -341 -756 -772 -1022 -54 -33 -98 -62 -98 -65 0 -5 166 -251 181 -267 4 -5 61 19 126 53 676 355 1110 948 1152 1578 29 438 -96 801 -363 1051 -187 174 -471 249 -739 192z"></path>
    <path d="M2755 2904 c-191 -31 -366 -139 -467 -287 -56 -82 -114 -211 -134 -293 -22 -97 -20 -249 6 -349 83 -326 360 -542 720 -562 118 -6 191 4 281 41 l61 25 -7 -47 c-22 -151 -90 -345 -166 -478 -132 -230 -359 -452 -625 -611 -52 -30 -94 -57 -94 -59 0 -2 161 -238 186 -272 6 -9 251 125 352 192 490 325 804 766 903 1267 29 146 32 422 6 565 -42 233 -117 393 -275 587 -93 115 -246 213 -404 257 -72 21 -274 35 -343 24z"></path>
  </g>
</svg>
